<svg xmlns="http://www.w3.org/2000/svg" width="98.841" height="50" viewBox="0 0 98.841 50">
  <g id="グループ_170" data-name="グループ 170" transform="translate(-41.814 -43.456)">
    <g id="グループ_159" data-name="グループ 159" transform="translate(41.814 43.456)">
      <path id="パス_62" data-name="パス 62" d="M49.352,77.413a6.08,6.08,0,0,1,2.615.939,4.835,4.835,0,0,1,1.584,1.76,6.432,6.432,0,0,1,.69,2.369,11.17,11.17,0,0,1-.072,2.788l3.647.524-.7,4.887-15.3-2.2.7-4.886a11.344,11.344,0,0,1,.716-2.7,6.554,6.554,0,0,1,1.328-2.079,4.878,4.878,0,0,1,2.018-1.244A6.116,6.116,0,0,1,49.352,77.413Zm-.32,2.225a4.223,4.223,0,0,0-1.842.1,3.276,3.276,0,0,0-1.381.819,4.486,4.486,0,0,0-.942,1.422,7.292,7.292,0,0,0-.517,1.881l-.372,2.592L55.61,88.123l.085-.6L52.047,87l.285-2a7.132,7.132,0,0,0,.035-1.949,4.546,4.546,0,0,0-.5-1.631,3.29,3.29,0,0,0-1.1-1.175A4.221,4.221,0,0,0,49.032,79.639Zm-.094.642a3.617,3.617,0,0,1,1.6.582,2.842,2.842,0,0,1,.924,1.069,3.917,3.917,0,0,1,.371,1.4,7.009,7.009,0,0,1-.055,1.6l-.285,2-6.883-.99.288-1.995a6.913,6.913,0,0,1,.4-1.546,3.943,3.943,0,0,1,.753-1.24,2.848,2.848,0,0,1,1.188-.767A3.637,3.637,0,0,1,48.938,80.281Zm1.1,4.4.03-.206a1.872,1.872,0,0,0-.247-1.452,2.075,2.075,0,0,0-2.5-.359,1.857,1.857,0,0,0-.648,1.323l-.029.206Z" transform="translate(-41.814 -40.916)" fill="#414141"/>
      <path id="パス_63" data-name="パス 63" d="M44.27,74.639l2.145-4.88A9.169,9.169,0,0,1,47.881,67.4a6.412,6.412,0,0,1,1.942-1.538,5.3,5.3,0,0,1,2.311-.567,6.1,6.1,0,0,1,2.576.562,5.3,5.3,0,0,1,1.673,1.09,6.106,6.106,0,0,1,.942,1.2,4.992,4.992,0,0,1,.514,1.365l5.833-.6-2.332,5.3-4.518.546,3.586,1.575-1.987,4.518Zm11.168-.356a8.2,8.2,0,0,0,.54-1.686l4.28-.524.29-.658-4.5.554a4.35,4.35,0,0,0-.437-2.369,3.658,3.658,0,0,0-1.876-1.635,3.84,3.84,0,0,0-1.793-.357,3.793,3.793,0,0,0-1.612.469,4.85,4.85,0,0,0-1.368,1.157,7.323,7.323,0,0,0-1.055,1.738L46.9,73.264l10.757,4.728.242-.551-3.225-1.418ZM54.166,75.8l-6.514-2.863.764-1.741a5.281,5.281,0,0,1,2.179-2.65,3.145,3.145,0,0,1,2.9-.029,3.109,3.109,0,0,1,1.927,2.151,5.288,5.288,0,0,1-.491,3.391Zm-.951-2.621.1-.233a2.7,2.7,0,0,0,.242-1.527,1.731,1.731,0,0,0-2.42-1.063,2.717,2.717,0,0,0-.961,1.212l-.1.232Z" transform="translate(-41.422 -41.916)" fill="#414141"/>
      <path id="パス_64" data-name="パス 64" d="M55.783,65.717a7.9,7.9,0,0,1-1.592-2.795,8.1,8.1,0,0,1,.415-6.1,8.119,8.119,0,0,1,4.749-4.145,8.094,8.094,0,0,1,6.1.414,8.1,8.1,0,0,1,4.144,4.75,8.084,8.084,0,0,1-.413,6.1,8.11,8.11,0,0,1-4.749,4.146,8.121,8.121,0,0,1-6.1-.414A7.908,7.908,0,0,1,55.783,65.717Zm1.641-1.432a5.747,5.747,0,0,0,1.868,1.432,5.957,5.957,0,0,0,4.464.3,5.954,5.954,0,0,0,3.472-3.03,5.951,5.951,0,0,0,.3-4.464A5.965,5.965,0,0,0,64.5,55.051a5.973,5.973,0,0,0-4.464-.3,5.976,5.976,0,0,0-3.477,3.035,6.043,6.043,0,0,0-.581,2.2,5.98,5.98,0,0,0,.282,2.263A5.726,5.726,0,0,0,57.424,64.285ZM65.4,64.4a5.188,5.188,0,0,1-1.838,1.051,5.426,5.426,0,0,1-4.007-.273,5.163,5.163,0,0,1-1.678-1.288,5.091,5.091,0,0,1-1.048-1.838,5.426,5.426,0,0,1,.271-4,5.368,5.368,0,0,1,3.124-2.728,5.415,5.415,0,0,1,4.007.271,5.171,5.171,0,0,1,1.679,1.288,5.237,5.237,0,0,1,1.051,1.837,5.406,5.406,0,0,1-.275,4.006A5.128,5.128,0,0,1,65.4,64.4Zm-5.949-1.882a3.184,3.184,0,0,0,1.021.785,3.309,3.309,0,0,0,1.2.319,3.257,3.257,0,0,0,1.236-.153,3.157,3.157,0,0,0,1.119-.64,3.2,3.2,0,0,0,.785-1.022,3.282,3.282,0,0,0,.317-1.2,3.243,3.243,0,0,0-1.814-3.138A3.274,3.274,0,0,0,60.88,57.3a3.241,3.241,0,0,0-1.9,1.66,3.369,3.369,0,0,0-.324,1.2,3.4,3.4,0,0,0,.157,1.233A3.172,3.172,0,0,0,59.453,62.517Z" transform="translate(-39.903 -42.849)" fill="#414141"/>
      <path id="パス_65" data-name="パス 65" d="M69.764,59.786l1.573-.629q.689-.275.82-.627A1.114,1.114,0,0,0,72.1,57.7l-3.965-9.92,4.735-1.894,4.284,10.717a3.924,3.924,0,0,1,.211,3.186,4.625,4.625,0,0,1-2.587,1.983L71.14,63.231Zm4.153.337a1.74,1.74,0,0,0,1.176-2.616l-3.622-9.061-.581.233,3.623,9.059a1.877,1.877,0,0,1,.162,1.095c-.07.286-.39.543-.966.774l-1.741.7.206.516Z" transform="translate(-39.433 -43.067)" fill="#414141"/>
      <path id="パス_66" data-name="パス 66" d="M76.232,44.9l9-1.441.639,4.007-4.118.659.269,1.694,4.052-.648.608,3.8-4.051.648.282,1.763,4.279-.685.641,4.006L78.674,60.16Zm9.611,12.238-.088-.549-4.577.732-.8-5.01,4.348-.7-.088-.55-4.349.7-.79-4.945,4.578-.731-.089-.55-5.172.827,1.857,11.6Z" transform="translate(-38.755 -43.456)" fill="#414141"/>
      <path id="パス_67" data-name="パス 67" d="M87.368,50.5a8.349,8.349,0,0,1,1.139-3.217,7.805,7.805,0,0,1,2.12-2.272,7.717,7.717,0,0,1,2.81-1.232,8.734,8.734,0,0,1,3.2-.094,9.941,9.941,0,0,1,2.289.6,11.3,11.3,0,0,1,1.668.836,8.244,8.244,0,0,1,1.344,1.023L98.9,50.021a8.892,8.892,0,0,0-.724-.647,7.79,7.79,0,0,0-.874-.494,4.142,4.142,0,0,0-1.2-.356,3.372,3.372,0,0,0-1.344.057,3.41,3.41,0,0,0-1.146.531,3.2,3.2,0,0,0-.852.916,3.144,3.144,0,0,0-.44,1.211,3.024,3.024,0,0,0,.077,1.288,3.21,3.21,0,0,0,.572,1.127,3.41,3.41,0,0,0,.972.85,3.584,3.584,0,0,0,1.315.455,4.338,4.338,0,0,0,1.334.013,4.813,4.813,0,0,0,1.024-.269,3.6,3.6,0,0,0,.892-.475l1.772,4.6a6.871,6.871,0,0,1-1.6.673,12.418,12.418,0,0,1-1.854.333,9.99,9.99,0,0,1-5.614-1.157,7.809,7.809,0,0,1-2.367-2.031A7.482,7.482,0,0,1,87.5,53.856,8.5,8.5,0,0,1,87.368,50.5Zm2.89.431a5.624,5.624,0,0,1,.685-2.006,5.1,5.1,0,0,1,1.316-1.513,5.026,5.026,0,0,1,1.843-.872,5.723,5.723,0,0,1,2.261-.083,6.246,6.246,0,0,1,1.053.241,4.934,4.934,0,0,1,.763.312,3.081,3.081,0,0,1,.623.376l.4-.5c-.23-.143-.473-.281-.734-.414a9.048,9.048,0,0,0-.864-.34,6.571,6.571,0,0,0-1.156-.267,6.167,6.167,0,0,0-2.294.078,5.784,5.784,0,0,0-2.058.9,5.853,5.853,0,0,0-2.439,4,6.061,6.061,0,0,0,.107,2.5,5.527,5.527,0,0,0,1.018,2.04,5.843,5.843,0,0,0,1.748,1.468,6.677,6.677,0,0,0,2.275.762,6.164,6.164,0,0,0,1.257.072,7.648,7.648,0,0,0,.975-.111,4.566,4.566,0,0,0,.835-.25l-.238-.6a3.011,3.011,0,0,1-.74.24,5.393,5.393,0,0,1-.86.118,5.493,5.493,0,0,1-1.139-.067,6,6,0,0,1-2.207-.753,5.049,5.049,0,0,1-1.539-1.379,4.955,4.955,0,0,1-.828-1.833A5.66,5.66,0,0,1,90.258,50.929Z" transform="translate(-37.885 -43.436)" fill="#414141"/>
      <path id="パス_68" data-name="パス 68" d="M104.091,50.976l-2.556-1.257,1.787-3.639,9.693,4.762-1.789,3.641-2.559-1.258-5.027,10.233-4.576-2.249ZM102.439,60.8l4.938-10.049,2.975,1.461.245-.5-6.488-3.19-.246.5,2.973,1.461L101.9,60.538Z" transform="translate(-36.831 -43.037)" fill="#414141"/>
      <path id="パス_69" data-name="パス 69" d="M123.177,57.2l5.314,7.4L125.2,66.965l-2.433-3.389-1.393,1,2.391,3.331-3.124,2.246-2.395-3.333L113.5,70.23l-2.879-4.01ZM113.83,67.51l4.573-3.285,2.57,3.575.453-.325-2.57-3.576,4.067-2.92,2.7,3.764.452-.325-3.056-4.253-9.544,6.854Z" transform="translate(-36.499 -42.409)" fill="#414141"/>
      <path id="パス_70" data-name="パス 70" d="M129.118,67.355l3.244,8.511-3.789,1.445-1.487-3.9-1.6.61,1.459,3.833-3.594,1.371-1.462-3.833-1.668.636,1.545,4.05-3.79,1.445-3.3-8.663ZM119.095,79.26l.523-.2-1.653-4.329,4.744-1.809,1.567,4.116.521-.2-1.569-4.115,4.678-1.784,1.653,4.331.518-.2-1.866-4.9-10.98,4.184Z" transform="translate(-35.852 -41.695)" fill="#414141"/>
      <path id="パス_71" data-name="パス 71" d="M122.644,80.685a7.739,7.739,0,0,0-.146,1.087,8.639,8.639,0,0,0-.077,1.068,9.793,9.793,0,0,0,.053,1.193q.108,1.061.892.981a.891.891,0,0,0,.58-.386,10.13,10.13,0,0,0,.605-.889q.329-.534.732-1.146a7.831,7.831,0,0,1,.953-1.17,5.623,5.623,0,0,1,1.264-.957,4.358,4.358,0,0,1,1.685-.5,4.462,4.462,0,0,1,1.954.2,3.826,3.826,0,0,1,1.494.943,4.848,4.848,0,0,1,1.008,1.539,6.668,6.668,0,0,1,.493,1.963,10.457,10.457,0,0,1,.056,1.112v1c-.014.343-.024.678-.038,1l-4.311.444c0-.125,0-.264,0-.42,0-.125,0-.264,0-.42s-.01-.318-.027-.487c-.008-.09-.026-.206-.046-.344a2.1,2.1,0,0,0-.1-.385.805.805,0,0,0-.195-.307.4.4,0,0,0-.339-.1c-.122.013-.264.131-.428.358s-.351.5-.567.828-.467.684-.753,1.079a6.831,6.831,0,0,1-1,1.1,6.433,6.433,0,0,1-1.328.906,4.731,4.731,0,0,1-1.721.492,5.583,5.583,0,0,1-1.936-.128,4.062,4.062,0,0,1-1.647-.844,4.784,4.784,0,0,1-1.215-1.635,7.474,7.474,0,0,1-.639-2.474,14.687,14.687,0,0,1-.086-1.633c0-.506.023-.953.059-1.346a11.867,11.867,0,0,1,.152-1.25Zm-2.57,2.222c-.024.218-.038.453-.042.7-.01.219-.014.448-.013.688s.016.485.041.732a5.419,5.419,0,0,0,.278,1.24,3.14,3.14,0,0,0,.61,1.045,2.521,2.521,0,0,0,.964.681,2.813,2.813,0,0,0,1.357.152,2.578,2.578,0,0,0,1.234-.464,6.012,6.012,0,0,0,1.066-.971c.333-.385.647-.79.947-1.217s.6-.83.912-1.212a6.3,6.3,0,0,1,.949-.959,1.967,1.967,0,0,1,1.04-.444,1.6,1.6,0,0,1,1.334.4,2.647,2.647,0,0,1,.623,1.66c.014.123.021.252.028.382s.007.26.006.384a2.849,2.849,0,0,0,.012.372l.6-.063a2.767,2.767,0,0,1-.013-.347,3.467,3.467,0,0,0,0-.362c0-.132-.014-.266-.028-.4a3.5,3.5,0,0,0-.776-1.992,2.013,2.013,0,0,0-1.845-.627,2.352,2.352,0,0,0-1.177.459,6.224,6.224,0,0,0-1.021.966q-.485.574-.934,1.214c-.3.428-.6.83-.912,1.212a5.734,5.734,0,0,1-.986.963,2.195,2.195,0,0,1-1.118.452,2.01,2.01,0,0,1-1.762-.575,3.338,3.338,0,0,1-.787-2.005,8.369,8.369,0,0,1-.031-1.441c.007-.233.024-.46.048-.68Z" transform="translate(-35.349 -40.5)" fill="#414141"/>
    </g>
    <text id="_2_0_2_0" data-name="2 0 2 0" transform="translate(67.811 86.456)" fill="#414141" font-size="16" font-family="Anton-Regular, Anton"><tspan x="0" y="0">2 0 2 0</tspan></text>
  </g>
</svg>
