<svg xmlns="http://www.w3.org/2000/svg" width="36" height="66" viewBox="0 0 36 66">
  <g id="グループ_175" data-name="グループ 175" transform="translate(-762.5 -7854)">
    <path id="window-restore-regular" d="M28.094,0H8.719A2.907,2.907,0,0,0,5.813,2.906V5.813H2.906A2.907,2.907,0,0,0,0,8.719V28.094A2.907,2.907,0,0,0,2.906,31H22.281a2.907,2.907,0,0,0,2.906-2.906V25.188h2.906A2.907,2.907,0,0,0,31,22.281V2.906A2.907,2.907,0,0,0,28.094,0ZM22.281,28.094H2.906V15.5H22.281Zm5.813-5.812H25.188V8.719a2.907,2.907,0,0,0-2.906-2.906H8.719V2.906H28.094Z" transform="translate(764.5 7854)" fill="#fcf8f3"/>
    <text id="id.lab" transform="translate(780.5 7915)" fill="#fff" font-size="14" font-family="Avenir-Medium, Avenir" font-weight="500"><tspan x="-17.493" y="0">id.lab</tspan></text>
  </g>
</svg>
