<svg xmlns="http://www.w3.org/2000/svg" width="31.007" height="31" viewBox="0 0 31.007 31">
  <path id="instagram-brands" d="M15.432,39.377a7.948,7.948,0,1,0,7.948,7.948A7.935,7.935,0,0,0,15.432,39.377Zm0,13.115A5.167,5.167,0,1,1,20.6,47.325a5.177,5.177,0,0,1-5.167,5.167Zm10.127-13.44A1.854,1.854,0,1,1,23.705,37.2,1.85,1.85,0,0,1,25.559,39.052Zm5.264,1.882a9.174,9.174,0,0,0-2.5-6.5,9.235,9.235,0,0,0-6.5-2.5c-2.559-.145-10.231-.145-12.79,0a9.221,9.221,0,0,0-6.5,2.5,9.2,9.2,0,0,0-2.5,6.5c-.145,2.559-.145,10.231,0,12.79a9.174,9.174,0,0,0,2.5,6.5,9.246,9.246,0,0,0,6.5,2.5c2.559.145,10.231.145,12.79,0a9.174,9.174,0,0,0,6.5-2.5,9.235,9.235,0,0,0,2.5-6.5C30.968,51.157,30.968,43.493,30.823,40.933ZM27.516,56.463A5.231,5.231,0,0,1,24.57,59.41c-2.041.809-6.883.623-9.138.623s-7.1.18-9.138-.623a5.231,5.231,0,0,1-2.947-2.947c-.809-2.041-.623-6.883-.623-9.138s-.18-7.1.623-9.138A5.231,5.231,0,0,1,6.294,35.24c2.041-.809,6.883-.623,9.138-.623s7.1-.18,9.138.623a5.231,5.231,0,0,1,2.947,2.947c.809,2.041.623,6.883.623,9.138S28.326,54.429,27.516,56.463Z" transform="translate(0.075 -31.825)" fill="#fcf8f3"/>
</svg>
