<svg xmlns="http://www.w3.org/2000/svg" width="809.027" height="410.731" viewBox="0 0 809.027 410.731">
  <g id="グループ_172" data-name="グループ 172" transform="translate(-41.814 -43.456)">
    <g id="グループ_159" data-name="グループ 159" transform="translate(41.814 43.456)">
      <path id="パス_62" data-name="パス 62" d="M100.165,77.973c8.169,1.185,14.911,3.591,20.243,7.271A37.427,37.427,0,0,1,132.67,98.872a49.79,49.79,0,0,1,5.341,18.34,86.465,86.465,0,0,1-.557,21.581l28.233,4.058-5.44,37.829L41.814,163.659l5.431-37.82a87.81,87.81,0,0,1,5.539-20.872,50.736,50.736,0,0,1,10.279-16.1,37.762,37.762,0,0,1,15.62-9.632Q87.906,76.223,100.165,77.973ZM97.687,95.2a32.689,32.689,0,0,0-14.255.772A25.356,25.356,0,0,0,72.74,102.31a34.726,34.726,0,0,0-7.289,11.006,56.446,56.446,0,0,0-4,14.561L58.565,147.94,148.6,160.876l.655-4.614L121.027,152.2l2.208-15.449a55.21,55.21,0,0,0,.269-15.09,35.194,35.194,0,0,0-3.878-12.622,25.463,25.463,0,0,0-8.492-9.094A32.672,32.672,0,0,0,97.687,95.2Zm-.727,4.973a28,28,0,0,1,12.415,4.506,22,22,0,0,1,7.155,8.277,30.322,30.322,0,0,1,2.873,10.835,54.255,54.255,0,0,1-.422,12.352l-2.208,15.449-53.279-7.666,2.226-15.44a53.515,53.515,0,0,1,3.07-11.966,30.52,30.52,0,0,1,5.826-9.6,22.047,22.047,0,0,1,9.192-5.934A28.153,28.153,0,0,1,96.96,100.173Zm8.528,34.032.233-1.6c.7-4.973.081-8.717-1.912-11.239s-5.072-4.085-9.219-4.677c-4.129-.6-7.523.036-10.135,1.894-2.639,1.858-4.3,5.27-5.018,10.243l-.224,1.6Z" transform="translate(-41.814 226.76)" fill="#fff"/>
      <path id="パス_63" data-name="パス 63" d="M44.27,137.606,60.877,99.831A70.978,70.978,0,0,1,72.224,81.6,49.633,49.633,0,0,1,87.261,69.7a41.028,41.028,0,0,1,17.891-4.39,47.227,47.227,0,0,1,19.938,4.354A40.986,40.986,0,0,1,138.044,78.1a47.267,47.267,0,0,1,7.289,9.282,38.642,38.642,0,0,1,3.977,10.566l45.154-4.65-18.053,41.061-34.974,4.228,27.757,12.191L153.817,185.75Zm86.449-2.756A63.464,63.464,0,0,0,134.9,121.8l33.134-4.058,2.244-5.09-34.822,4.291a33.677,33.677,0,0,0-3.384-18.34q-4.188-8.106-14.525-12.658a29.728,29.728,0,0,0-13.878-2.765,29.363,29.363,0,0,0-12.478,3.627A37.539,37.539,0,0,0,80.6,95.765a56.688,56.688,0,0,0-8.169,13.457l-7.8,17.739,83.271,36.6,1.876-4.264-24.965-10.979Zm-9.848,11.742L70.447,124.428l5.916-13.475q6.6-14.933,16.868-20.512,10.288-5.575,22.434-.224,12.159,5.332,14.92,16.652,2.787,11.311-3.8,26.249ZM113.51,126.3l.8-1.8a20.93,20.93,0,0,0,1.876-11.823c-.6-3.716-3.079-6.544-7.46-8.465s-8.124-1.849-11.275.233a21.035,21.035,0,0,0-7.442,9.381l-.79,1.8Z" transform="translate(-22.222 130.779)" fill="#fff"/>
      <path id="パス_64" data-name="パス 64" d="M69.267,156.354A61.147,61.147,0,0,1,56.941,134.72a62.7,62.7,0,0,1,3.214-47.2A62.852,62.852,0,0,1,96.916,55.435a62.657,62.657,0,0,1,47.21,3.2A62.7,62.7,0,0,1,176.2,95.409a62.58,62.58,0,0,1-3.2,47.2A62.778,62.778,0,0,1,136.244,174.7a62.863,62.863,0,0,1-47.2-3.2A61.218,61.218,0,0,1,69.267,156.354Zm12.7-11.087a44.488,44.488,0,0,0,14.462,11.087,46.11,46.11,0,0,0,34.553,2.334,46.087,46.087,0,0,0,26.877-23.457,46.07,46.07,0,0,0,2.343-34.553,46.174,46.174,0,0,0-23.466-26.9,46.234,46.234,0,0,0-34.552-2.352A46.262,46.262,0,0,0,75.272,94.924a46.779,46.779,0,0,0-4.5,17.02,46.293,46.293,0,0,0,2.181,17.514A44.325,44.325,0,0,0,81.969,145.268Zm61.753.88a40.161,40.161,0,0,1-14.229,8.133,42,42,0,0,1-31.016-2.11,39.969,39.969,0,0,1-12.99-9.973,39.41,39.41,0,0,1-8.115-14.229,42,42,0,0,1,2.1-31,41.55,41.55,0,0,1,24.184-21.114,41.916,41.916,0,0,1,31.016,2.1,40.029,40.029,0,0,1,13,9.973,40.538,40.538,0,0,1,8.133,14.22,41.851,41.851,0,0,1-2.128,31.007A39.7,39.7,0,0,1,143.722,146.147ZM97.67,131.578a24.647,24.647,0,0,0,7.9,6.077,25.614,25.614,0,0,0,9.3,2.469,25.212,25.212,0,0,0,9.569-1.185,24.436,24.436,0,0,0,8.663-4.955,24.74,24.74,0,0,0,6.077-7.909,25.406,25.406,0,0,0,2.451-9.309,25.107,25.107,0,0,0-14.04-24.292,25.346,25.346,0,0,0-18.87-1.266,25.086,25.086,0,0,0-14.713,12.846,26.079,26.079,0,0,0-2.5,9.318,26.357,26.357,0,0,0,1.212,9.543A24.554,24.554,0,0,0,97.67,131.578Z" transform="translate(53.665 26.867)" fill="#fff"/>
      <path id="パス_65" data-name="パス 65" d="M80.74,153.454l12.173-4.866q5.332-2.128,6.347-4.857a8.625,8.625,0,0,0-.431-6.392L68.136,60.55l36.653-14.659,33.161,82.957q6.194,15.485,1.634,24.66c-3.016,6.1-9.713,11.23-20.028,15.351l-28.17,11.257Zm32.147,2.612c5.449-2.181,8.788-4.9,10.072-8.187q1.9-4.9-.969-12.065L93.954,65.676l-4.5,1.8L117.5,137.609q2.047,5.157,1.257,8.474c-.539,2.217-3.016,4.2-7.478,5.988l-13.475,5.386,1.6,3.995Z" transform="translate(168.157 -24.032)" fill="#fff"/>
      <path id="パス_66" data-name="パス 66" d="M76.232,54.614l69.635-11.158,4.946,31.016-31.877,5.1,2.083,13.115,31.366-5.018,4.7,29.4-31.357,5.018,2.181,13.645,33.125-5.305L166,161.432,95.138,172.761Zm74.4,94.734-.682-4.246-35.432,5.664-6.212-38.781,33.655-5.4-.682-4.255-33.664,5.4L101.5,69.453,136.944,63.8l-.691-4.255-40.037,6.4,14.372,89.815Z" transform="translate(232.739 -43.456)" fill="#fff"/>
      <path id="パス_67" data-name="パス 67" d="M88.09,97.135a64.624,64.624,0,0,1,8.815-24.9,60.419,60.419,0,0,1,16.41-17.586,59.733,59.733,0,0,1,21.751-9.534,67.608,67.608,0,0,1,24.786-.727,76.952,76.952,0,0,1,17.721,4.65,87.493,87.493,0,0,1,12.909,6.472,63.812,63.812,0,0,1,10.4,7.918L177.357,93.446a68.83,68.83,0,0,0-5.6-5.009,60.3,60.3,0,0,0-6.769-3.824,32.062,32.062,0,0,0-9.3-2.756,26.1,26.1,0,0,0-10.4.44,26.4,26.4,0,0,0-8.869,4.111,24.783,24.783,0,0,0-6.6,7.092,24.338,24.338,0,0,0-3.4,9.372,23.411,23.411,0,0,0,.592,9.973,24.844,24.844,0,0,0,4.426,8.726,26.4,26.4,0,0,0,7.523,6.58,27.743,27.743,0,0,0,10.18,3.519,33.579,33.579,0,0,0,10.324.1,37.255,37.255,0,0,0,7.927-2.083,27.843,27.843,0,0,0,6.9-3.681L188,161.617a53.188,53.188,0,0,1-12.4,5.207,96.13,96.13,0,0,1-14.354,2.576,71.781,71.781,0,0,1-18.582-.61,71.13,71.13,0,0,1-24.875-8.349,60.447,60.447,0,0,1-18.322-15.719A57.915,57.915,0,0,1,89.1,123.133,65.8,65.8,0,0,1,88.09,97.135Zm22.371,3.339a43.532,43.532,0,0,1,5.305-15.53,39.438,39.438,0,0,1,10.189-11.715,38.907,38.907,0,0,1,14.264-6.751,44.3,44.3,0,0,1,17.505-.646,48.349,48.349,0,0,1,8.151,1.867,38.192,38.192,0,0,1,5.907,2.415,23.848,23.848,0,0,1,4.821,2.909l3.124-3.9c-1.777-1.1-3.663-2.172-5.682-3.2a70.036,70.036,0,0,0-6.688-2.63,50.868,50.868,0,0,0-8.95-2.065,47.74,47.74,0,0,0-17.757.6,44.77,44.77,0,0,0-15.934,6.957,45.3,45.3,0,0,0-18.879,31,46.922,46.922,0,0,0,.826,19.354,42.782,42.782,0,0,0,7.882,15.791,45.23,45.23,0,0,0,13.528,11.365,51.683,51.683,0,0,0,17.613,5.9,47.717,47.717,0,0,0,9.731.557,59.2,59.2,0,0,0,7.55-.862,35.343,35.343,0,0,0,6.464-1.939l-1.84-4.623a23.3,23.3,0,0,1-5.727,1.858,41.746,41.746,0,0,1-6.661.916,42.524,42.524,0,0,1-8.815-.521,46.455,46.455,0,0,1-17.083-5.826,39.083,39.083,0,0,1-11.913-10.674,38.357,38.357,0,0,1-6.41-14.193A43.816,43.816,0,0,1,110.46,100.475Z" transform="translate(320.715 -42.474)" fill="#fff"/>
      <path id="パス_68" data-name="パス 68" d="M137.987,83.981,118.2,74.25l13.834-28.17,75.03,36.86-13.852,28.188-19.812-9.74L134.486,180.6,99.063,163.194ZM125.2,160.061l38.224-77.786,23.026,11.311,1.894-3.851-50.226-24.7-1.9,3.869L159.227,80.22,121.012,158Z" transform="translate(414.862 -22.524)" fill="#fff"/>
      <path id="パス_69" data-name="パス 69" d="M207.815,57.2l41.133,57.264-25.5,18.313L204.61,106.549,193.829,114.3l18.511,25.782-24.184,17.389-18.538-25.8L132.911,158.05l-22.29-31.042ZM135.46,137l35.4-25.432,19.893,27.676,3.51-2.514-19.893-27.685,31.482-22.6,20.916,29.139,3.5-2.514L206.612,80.147,132.731,133.2Z" transform="translate(507.06 66.196)" fill="#fff"/>
      <path id="パス_70" data-name="パス 70" d="M226.491,67.355,251.6,133.237l-29.328,11.185-11.509-30.172-12.4,4.722,11.293,29.669-27.82,10.611-11.32-29.669L157.61,134.5l11.957,31.348-29.337,11.185-25.558-67.058ZM148.9,159.513l4.049-1.544-12.792-33.511,36.725-14,12.128,31.859,4.031-1.535L180.9,108.928,217.11,95.121,229.9,128.65l4.013-1.526L219.471,89.232l-84.994,32.389Z" transform="translate(539.383 147.187)" fill="#fff"/>
      <path id="パス_71" data-name="パス 71" d="M155.158,85.72a59.909,59.909,0,0,0-1.131,8.411,66.874,66.874,0,0,0-.592,8.268,75.8,75.8,0,0,0,.413,9.237q.835,8.214,6.9,7.595,2.316-.242,4.488-2.989a78.424,78.424,0,0,0,4.686-6.885q2.545-4.134,5.665-8.869a60.613,60.613,0,0,1,7.379-9.058,43.525,43.525,0,0,1,9.785-7.406,33.73,33.73,0,0,1,13.044-3.86,34.537,34.537,0,0,1,15.126,1.517,29.621,29.621,0,0,1,11.562,7.3,37.532,37.532,0,0,1,7.8,11.913,51.615,51.615,0,0,1,3.815,15.2,80.949,80.949,0,0,1,.431,8.609v7.756c-.108,2.657-.189,5.252-.3,7.774l-33.368,3.438c.027-.97.027-2.047.027-3.25.027-.97.027-2.047.027-3.25-.018-1.2-.081-2.46-.206-3.77-.063-.7-.2-1.6-.359-2.666a16.259,16.259,0,0,0-.754-2.98,6.234,6.234,0,0,0-1.508-2.379,3.13,3.13,0,0,0-2.621-.808c-.943.1-2.047,1.014-3.312,2.774s-2.72,3.887-4.39,6.41-3.618,5.3-5.826,8.349a52.878,52.878,0,0,1-7.774,8.537,49.8,49.8,0,0,1-10.279,7.011,36.621,36.621,0,0,1-13.322,3.806,43.214,43.214,0,0,1-14.983-.987,31.447,31.447,0,0,1-12.747-6.535,37.034,37.034,0,0,1-9.408-12.658,57.859,57.859,0,0,1-4.946-19.148,113.681,113.681,0,0,1-.664-12.64c.027-3.914.18-7.379.458-10.422a91.864,91.864,0,0,1,1.176-9.677Zm-19.893,17.2c-.189,1.688-.3,3.51-.323,5.431-.081,1.7-.108,3.465-.1,5.323s.126,3.752.314,5.665a41.948,41.948,0,0,0,2.155,9.6,24.3,24.3,0,0,0,4.722,8.088,19.516,19.516,0,0,0,7.46,5.27,21.774,21.774,0,0,0,10.5,1.176,19.958,19.958,0,0,0,9.552-3.591,46.535,46.535,0,0,0,8.25-7.514c2.576-2.98,5.009-6.113,7.334-9.417,2.289-3.3,4.659-6.428,7.056-9.381a48.787,48.787,0,0,1,7.343-7.424,15.227,15.227,0,0,1,8.052-3.438c4.282-.44,7.7.592,10.324,3.088q3.878,3.757,4.821,12.846c.108.952.161,1.948.215,2.953.045,1.023.054,2.011.045,2.971a22.038,22.038,0,0,0,.09,2.882l4.65-.485a21.418,21.418,0,0,1-.1-2.684,26.875,26.875,0,0,0-.027-2.8c-.027-1.023-.108-2.056-.215-3.133q-.983-9.641-6.006-15.423-5.009-5.8-14.282-4.857a18.2,18.2,0,0,0-9.112,3.555,48.181,48.181,0,0,0-7.9,7.478q-3.757,4.444-7.226,9.4c-2.316,3.312-4.659,6.427-7.056,9.381a44.387,44.387,0,0,1-7.63,7.451,16.99,16.99,0,0,1-8.654,3.5c-5.709.592-10.243-.9-13.636-4.453q-5.05-5.359-6.1-15.521a64.784,64.784,0,0,1-.242-11.158c.054-1.8.189-3.564.368-5.261Z" transform="translate(564.493 247.56)" fill="#fff"/>
    </g>
    <text id="_2_0_2_0" data-name="2 0 2 0" transform="translate(263.5 410.187)" fill="#fff" font-size="133" font-family="Anton-Regular, Anton"><tspan x="0" y="0">2 0 2 0</tspan></text>
  </g>
</svg>
