<?xml version="1.0" encoding="utf-8"?>
<!-- Generator: Adobe Illustrator 24.2.3, SVG Export Plug-In . SVG Version: 6.00 Build 0)  -->
<svg version="1.1" xmlns="http://www.w3.org/2000/svg" xmlns:xlink="http://www.w3.org/1999/xlink" x="0px" y="0px"
	 viewBox="0 0 809 410.7" enable-background="new 0 0 809 410.7" xml:space="preserve">
<path d="M58.4,304.7c8.2,1.2,14.9,3.6,20.2,7.3c5.2,3.5,9.4,8.1,12.3,13.6c2.9,5.7,4.8,11.9,5.3,18.3c0.7,7.2,0.5,14.4-0.6,21.6
	l28.2,4.1l-5.4,37.8L0,390.4l5.4-37.8c1-7.2,2.8-14.2,5.5-20.9c2.4-6,5.9-11.4,10.3-16.1c4.3-4.4,9.7-7.8,15.6-9.6
	C43,304,50.2,303.6,58.4,304.7z M55.9,322c-4.8-0.8-9.6-0.5-14.3,0.8c-4,1.2-7.7,3.4-10.7,6.3c-3.1,3.2-5.6,6.9-7.3,11
	c-2,4.7-3.3,9.6-4,14.6l-2.9,20.1l90,12.9l0.7-4.6L79.2,379l2.2-15.4c0.8-5,0.9-10.1,0.3-15.1c-0.5-4.4-1.8-8.7-3.9-12.6
	c-2-3.7-5-6.8-8.5-9.1C65.2,324.2,60.7,322.5,55.9,322z M55.1,326.9c4.4,0.5,8.7,2,12.4,4.5c3,2.1,5.5,5,7.2,8.3
	c1.6,3.4,2.6,7.1,2.9,10.8c0.3,4.1,0.2,8.3-0.4,12.4L75,378.4l-53.3-7.7l2.2-15.4c0.6-4.1,1.6-8.1,3.1-12c1.3-3.5,3.3-6.8,5.8-9.6
	c2.5-2.7,5.7-4.8,9.2-5.9C46.3,326.4,50.8,326.2,55.1,326.9z M63.7,361l0.2-1.6c0.7-5,0.1-8.7-1.9-11.2s-5.1-4.1-9.2-4.7
	s-7.5,0-10.1,1.9c-2.6,1.9-4.3,5.3-5,10.2l-0.2,1.6L63.7,361z"/>
<path d="M22.1,268.4l16.6-37.8c2.8-6.6,6.7-12.8,11.3-18.2c4.2-4.9,9.3-8.9,15-11.9c5.6-2.8,11.7-4.3,17.9-4.4
	c6.9,0,13.7,1.5,19.9,4.4c4.8,2,9.2,4.8,13,8.4c2.8,2.8,5.3,5.9,7.3,9.3c1.8,3.3,3.2,6.9,4,10.6l45.2-4.7l-18.1,41.1l-35,4.2
	l27.8,12.2l-15.4,35L22.1,268.4z M108.5,265.6c1.9-4.2,3.3-8.6,4.2-13.1l33.1-4.1l2.2-5.1l-34.8,4.3c0.6-6.3-0.6-12.7-3.4-18.3
	c-2.8-5.4-7.6-9.6-14.5-12.7c-4.3-2-9.1-3-13.9-2.8c-4.4,0.3-8.6,1.5-12.5,3.6c-4.1,2.3-7.6,5.3-10.6,9c-3.3,4.1-6.1,8.6-8.2,13.5
	l-7.8,17.7l83.3,36.6l1.9-4.3l-25-11L108.5,265.6z M98.7,277.4l-50.4-22.2l5.9-13.5c4.4-10,10-16.8,16.9-20.5s14.3-3.8,22.4-0.2
	s13.1,9.1,14.9,16.7c1.9,7.5,0.6,16.3-3.8,26.2L98.7,277.4z M91.3,257.1l0.8-1.8c1.8-3.7,2.4-7.8,1.9-11.8c-0.6-3.7-3.1-6.5-7.5-8.5
	s-8.1-1.8-11.3,0.2c-3.3,2.3-5.9,5.6-7.4,9.4l-0.8,1.8L91.3,257.1z"/>
<path d="M122.9,183.2c-5.5-6.3-9.7-13.7-12.3-21.6c-5.1-15.5-4-32.5,3.2-47.2c7.4-15.2,20.7-26.8,36.8-32.1
	c15.6-5.1,32.5-4,47.2,3.2c15.2,7.4,26.8,20.7,32.1,36.8c5.2,15.5,4,32.5-3.2,47.2c-7.4,15.2-20.7,26.8-36.8,32.1
	c-15.5,5.1-32.5,4-47.2-3.2C135.2,194.7,128.4,189.6,122.9,183.2z M135.6,172.1c4,4.7,8.9,8.4,14.5,11.1c10.8,5.2,23.2,6.1,34.6,2.3
	c11.7-3.9,21.4-12.3,26.9-23.5c5.2-10.8,6.1-23.2,2.3-34.6c-3.9-11.7-12.4-21.4-23.5-26.9c-10.8-5.2-23.2-6.1-34.6-2.4
	c-11.8,3.9-21.4,12.4-26.9,23.5c-2.6,5.3-4.1,11.1-4.5,17s0.3,11.9,2.2,17.5C128.5,162.2,131.6,167.5,135.6,172.1L135.6,172.1z
	 M197.4,173c-4.1,3.7-9,6.4-14.2,8.1c-10.2,3.3-21.3,2.5-31-2.1c-5-2.4-9.4-5.8-13-10c-3.7-4.1-6.4-9-8.1-14.2
	c-3.3-10.2-2.5-21.3,2.1-31c4.9-10,13.6-17.6,24.2-21.1c10.2-3.3,21.3-2.5,31,2.1c5,2.4,9.4,5.8,13,10c3.7,4.1,6.4,9,8.1,14.2
	c3.3,10.2,2.5,21.3-2.1,31C205,165,201.6,169.4,197.4,173L197.4,173z M151.3,158.4c2.2,2.5,4.9,4.6,7.9,6.1c2.9,1.4,6.1,2.2,9.3,2.5
	c3.2,0.2,6.5-0.2,9.6-1.2c3.2-1,6.1-2.7,8.7-5c2.5-2.2,4.6-4.9,6.1-7.9c1.4-2.9,2.2-6.1,2.5-9.3c0.7-10.2-4.9-19.8-14-24.3
	c-5.9-2.8-12.7-3.3-18.9-1.3c-6.4,2.1-11.7,6.8-14.7,12.8c-1.4,2.9-2.3,6.1-2.5,9.3s0.2,6.5,1.2,9.5
	C147.4,153,149.1,155.9,151.3,158.4z"/>
<path d="M248.9,129.4l12.2-4.9c3.6-1.4,5.7-3,6.3-4.9c0.7-2.1,0.5-4.4-0.4-6.4l-30.7-76.8L273,21.7l33.2,83
	c4.1,10.3,4.7,18.5,1.6,24.7c-3,6.1-9.7,11.2-20,15.4l-28.2,11.3L248.9,129.4z M281,132c5.4-2.2,8.8-4.9,10.1-8.2
	c1.3-3.3,0.9-7.3-1-12.1l-28-70.1l-4.5,1.8l28,70.1c1.4,3.4,1.8,6.3,1.3,8.5s-3,4.2-7.5,6l-13.5,5.4l1.6,4L281,132z"/>
<path d="M309,11.2L378.6,0l4.9,31l-31.9,5.1l2.1,13.1l31.4-5l4.7,29.4l-31.4,5l2.2,13.6l33.1-5.3l5,31l-70.9,11.3L309,11.2z
	 M383.4,105.9l-0.7-4.2l-35.4,5.7L341,68.5l33.7-5.4l-0.7-4.3l-33.7,5.4L334.2,26l35.4-5.7l-0.7-4.3l-40,6.4l14.4,89.8L383.4,105.9z
	"/>
<path d="M408.8,54.7c1.2-8.8,4.2-17.3,8.8-24.9c4.2-6.9,9.8-12.9,16.4-17.6c6.5-4.6,13.9-7.8,21.8-9.5c8.1-1.8,16.5-2,24.8-0.7
	c6.1,0.8,12,2.4,17.7,4.7c4.5,1.8,8.8,4,12.9,6.5c3.7,2.3,7.2,4.9,10.4,7.9l-23.5,30c-1.8-1.8-3.6-3.4-5.6-5
	c-2.2-1.4-4.4-2.7-6.8-3.8c-2.9-1.4-6.1-2.3-9.3-2.8c-3.5-0.6-7-0.4-10.4,0.4c-3.2,0.8-6.2,2.2-8.9,4.1c-2.6,1.9-4.9,4.3-6.6,7.1
	c-1.8,2.9-2.9,6-3.4,9.4c-0.5,3.3-0.3,6.7,0.6,10c0.9,3.2,2.4,6.1,4.4,8.7c2.1,2.7,4.6,4.9,7.5,6.6c3.1,1.8,6.6,3,10.2,3.5
	c3.4,0.6,6.9,0.6,10.3,0.1c2.7-0.4,5.4-1.1,7.9-2.1c2.5-0.9,4.8-2.1,6.9-3.7l13.7,35.6c-3.9,2.3-8.1,4-12.4,5.2
	c-4.7,1.2-9.5,2.1-14.4,2.6c-6.2,0.6-12.4,0.4-18.6-0.6c-8.7-1.2-17.2-4-24.9-8.3c-7.1-4-13.3-9.3-18.3-15.7
	c-4.9-6.4-8.5-13.7-10.4-21.6C407.8,72.1,407.4,63.3,408.8,54.7z M431.2,58c0.8-5.5,2.6-10.7,5.3-15.5c2.6-4.5,6-8.5,10.2-11.7
	s9.1-5.5,14.3-6.8c5.7-1.4,11.7-1.6,17.5-0.6c2.8,0.4,5.5,1,8.2,1.9c2,0.6,4,1.4,5.9,2.4c1.7,0.8,3.3,1.8,4.8,2.9l3.1-3.9
	c-1.8-1.1-3.7-2.2-5.7-3.2c-2.2-1-4.4-1.9-6.7-2.6c-2.9-1-5.9-1.6-8.9-2.1c-5.9-0.9-11.9-0.7-17.8,0.6c-5.7,1.3-11.1,3.6-15.9,7
	c-10.3,7.3-17.2,18.5-18.9,31c-1.1,6.4-0.8,13,0.8,19.4c1.5,5.8,4.2,11.1,7.9,15.8c3.7,4.6,8.3,8.5,13.5,11.4c5.5,3,11.4,5,17.6,5.9
	c3.2,0.5,6.5,0.7,9.7,0.6c2.5-0.1,5.1-0.4,7.5-0.9c2.2-0.4,4.4-1.1,6.5-1.9l-1.8-4.6c-1.8,0.9-3.7,1.5-5.7,1.9
	c-2.2,0.5-4.4,0.8-6.7,0.9c-2.9,0.1-5.9,0-8.8-0.5c-6-0.8-11.8-2.8-17.1-5.8c-4.7-2.7-8.7-6.3-11.9-10.7c-3.1-4.2-5.3-9.1-6.4-14.2
	C430.5,69,430.3,63.5,431.2,58L431.2,58z"/>
<path d="M552.9,61.5l-19.8-9.7l13.8-28.2l75,36.9L608,88.7L588.2,79l-38.9,79.2l-35.4-17.4L552.9,61.5z M540.1,137.5l38.2-77.8
	l23,11.3l1.9-3.9L553,42.5l-1.9,3.9l23,11.3l-38.2,77.8L540.1,137.5z"/>
<path d="M714.9,123.4l41.1,57.3L730.5,199l-18.8-26.2l-10.8,7.8l18.5,25.8l-24.2,17.4L676.7,198L640,224.2l-22.3-31L714.9,123.4z
	 M642.5,203.2l35.4-25.4l19.9,27.7l3.5-2.5l-19.9-27.7l31.5-22.6l20.9,29.1l3.5-2.5l-23.7-32.9l-73.9,53.1L642.5,203.2z"/>
<path d="M765.9,214.5l25.1,65.9l-29.3,11.2l-11.5-30.2l-12.4,4.7l11.3,29.7l-27.8,10.6L710,276.7l-12.9,4.9l12,31.3l-29.3,11.2
	L654.2,257L765.9,214.5z M688.3,306.7l4-1.5l-12.8-33.5l36.7-14l12.1,31.9l4-1.5l-12.1-31.9l36.2-13.8l12.8,33.5l4-1.5l-14.4-37.9
	l-85,32.4L688.3,306.7z"/>
<path d="M719.7,333.3c-0.6,2.8-1,5.6-1.1,8.4c-0.4,2.7-0.6,5.5-0.6,8.3c-0.1,3.1,0.1,6.2,0.4,9.2c0.6,5.5,2.9,8,6.9,7.6
	c1.5-0.2,3-1.2,4.5-3c1.7-2.2,3.2-4.5,4.7-6.9c1.7-2.8,3.6-5.7,5.7-8.9c2.2-3.2,4.6-6.3,7.4-9.1c2.9-2.9,6.2-5.4,9.8-7.4
	c4-2.2,8.5-3.5,13-3.9c5.1-0.6,10.3-0.1,15.1,1.5c4.4,1.5,8.3,4,11.6,7.3c3.3,3.4,6,7.5,7.8,11.9c2,4.8,3.3,10,3.8,15.2
	c0.3,2.9,0.4,5.7,0.4,8.6v7.8c-0.1,2.7-0.2,5.3-0.3,7.8l-33.4,3.4c0-1,0-2,0-3.3c0-1,0-2,0-3.3c0-1.2-0.1-2.5-0.2-3.8
	c-0.1-0.7-0.2-1.6-0.4-2.7c-0.2-1-0.4-2-0.8-3c-0.3-0.9-0.8-1.7-1.5-2.4c-0.7-0.7-1.7-1-2.6-0.8c-0.9,0.1-2,1-3.3,2.8
	s-2.7,3.9-4.4,6.4s-3.6,5.3-5.8,8.3c-2.3,3.1-4.9,6-7.8,8.5c-3.1,2.8-6.6,5.1-10.3,7c-4.2,2.1-8.7,3.4-13.3,3.8
	c-5,0.5-10.1,0.2-15-1c-4.7-1.2-9.1-3.4-12.7-6.5c-4-3.5-7.2-7.8-9.4-12.7c-2.7-6.1-4.4-12.5-4.9-19.1c-0.5-4.2-0.7-8.4-0.7-12.6
	c0-3.9,0.2-7.4,0.5-10.4c0.2-3.2,0.6-6.5,1.2-9.7L719.7,333.3z M699.8,350.5c-0.2,1.7-0.3,3.5-0.3,5.4c-0.1,1.7-0.1,3.5-0.1,5.3
	c0,1.9,0.1,3.8,0.3,5.7c0.3,3.3,1.1,6.5,2.2,9.6c1,3,2.6,5.7,4.7,8.1c2,2.3,4.6,4.1,7.5,5.3c3.4,1.2,7,1.7,10.5,1.2
	c3.4-0.3,6.7-1.6,9.6-3.6c3-2.2,5.8-4.7,8.3-7.5c2.6-3,5-6.1,7.3-9.4s4.7-6.4,7.1-9.4c2.2-2.7,4.6-5.2,7.3-7.4
	c2.3-1.9,5.1-3.1,8.1-3.4c4.3-0.4,7.7,0.6,10.3,3.1s4.2,6.8,4.8,12.8c0.1,1,0.2,1.9,0.2,3c0,1,0.1,2,0,3c0,1,0,1.9,0.1,2.9l4.7-0.5
	c-0.1-0.9-0.1-1.8-0.1-2.7c0-0.9,0-1.9,0-2.8c0-1-0.1-2.1-0.2-3.1c-0.7-6.4-2.7-11.6-6-15.4c-3.3-3.9-8.1-5.5-14.3-4.9
	c-3.3,0.3-6.5,1.6-9.1,3.6c-2.9,2.2-5.6,4.7-7.9,7.5c-2.5,3-4.9,6.1-7.2,9.4s-4.7,6.4-7.1,9.4c-2.2,2.8-4.8,5.3-7.6,7.5
	c-2.5,2-5.5,3.2-8.7,3.5c-5.7,0.6-10.2-0.9-13.6-4.5c-3.4-3.6-5.4-8.7-6.1-15.5c-0.4-3.7-0.5-7.4-0.2-11.2c0.1-1.8,0.2-3.6,0.4-5.3
	L699.8,350.5z"/>
<path d="M234.8,361.3c0-5.2,0.8-10.1,2.5-14.5c1.6-4.4,3.7-8.4,6.1-12c2.4-3.5,5.5-7.7,9.4-12.5c4-5,7.2-9.2,9.5-12.6
	c2.3-3.5,4.3-7.4,6-11.9c1.6-4.5,2.5-9.3,2.5-14.6c0-3.1-0.4-5.5-1.3-7.2s-2.5-2.6-4.8-2.6c-3.8,0-5.7,3.4-5.7,10.2v14h-24.1l-0.3-7
	c0-8.7,0.9-15.8,2.7-21.4s4.9-9.8,9.3-12.8c4.4-2.9,10.6-4.4,18.4-4.4c9.6,0,17,2.7,22.2,8c5.2,5.4,7.8,13,7.8,22.8
	c0,6.3-0.9,12-2.6,17.1s-3.9,9.6-6.4,13.4s-5.9,8.3-10,13.4c-3,3.6-5.5,6.9-7.5,9.7c-2,2.8-3.8,5.8-5.4,8.8h31.1v21.5h-59.3v-5.4
	H234.8z"/>
<path d="M383.3,260c-5-5.7-12.6-8.5-22.7-8.5c-10,0-17.5,2.8-22.6,8.5c-5.1,5.6-7.6,13.9-7.6,24.7v51.6c0,10.1,2.6,17.8,7.8,23.3
	s12.6,8.2,22.4,8.2c9.8,0,17.3-2.7,22.5-8.1c5.2-5.4,7.8-13.2,7.8-23.4v-51.6C390.9,273.9,388.4,265.7,383.3,260z M366.2,339
	c0,2.1-0.5,3.9-1.6,5.5c-1,1.5-2.4,2.3-4.1,2.3s-3.1-0.7-4.1-2.3c-1-1.5-1.5-3.4-1.5-5.5v-56.4c0-3.3,0.4-5.8,1.1-7.5
	s2.2-2.6,4.5-2.6c2.3,0,3.8,0.9,4.6,2.6c0.7,1.7,1.1,4.2,1.1,7.5V339z"/>
<path d="M428.5,361.3c0-5.2,0.8-10.1,2.5-14.5c1.6-4.4,3.7-8.4,6.1-12c2.4-3.5,5.5-7.7,9.4-12.5c4-5,7.2-9.2,9.5-12.6
	c2.3-3.5,4.3-7.4,6-11.9c1.6-4.5,2.5-9.3,2.5-14.6c0-3.1-0.4-5.5-1.3-7.2s-2.5-2.6-4.8-2.6c-3.8,0-5.7,3.4-5.7,10.2v14h-24.1l-0.3-7
	c0-8.7,0.9-15.8,2.7-21.4c1.8-5.6,4.9-9.8,9.3-12.8c4.4-2.9,10.6-4.4,18.4-4.4c9.6,0,17,2.7,22.2,8c5.2,5.4,7.8,13,7.8,22.8
	c0,6.3-0.9,12-2.6,17.1s-3.9,9.6-6.4,13.4s-5.9,8.3-10,13.4c-3,3.6-5.5,6.9-7.5,9.7c-2,2.8-3.8,5.8-5.4,8.8h31.1v21.5h-59.3v-5.4
	H428.5z"/>
<path d="M576.9,260c-5-5.7-12.6-8.5-22.7-8.5c-10,0-17.5,2.8-22.6,8.5c-5.1,5.6-7.6,13.9-7.6,24.7v51.6c0,10.1,2.6,17.8,7.8,23.3
	s12.7,8.2,22.4,8.2c9.8,0,17.3-2.7,22.5-8.1c5.2-5.4,7.8-13.2,7.8-23.4v-51.6C584.5,273.9,582,265.7,576.9,260z M559.9,339
	c0,2.1-0.5,3.9-1.6,5.5c-1.1,1.5-2.5,2.3-4.1,2.3c-1.7,0-3.1-0.7-4.1-2.3c-1-1.5-1.5-3.4-1.5-5.5v-56.4c0-3.3,0.4-5.8,1.1-7.5
	s2.2-2.6,4.5-2.6s3.8,0.9,4.6,2.6c0.7,1.7,1.1,4.2,1.1,7.5V339z"/>
</svg>
