<svg xmlns="http://www.w3.org/2000/svg" width="490" height="245.001" viewBox="0 0 490 245.001">
  <g id="グループ_175" data-name="グループ 175" transform="translate(-715 -1694)">
    <path id="前面オブジェクトで型抜き_1" data-name="前面オブジェクトで型抜き 1" d="M490,0H0A246.816,246.816,0,0,0,4.977,49.377,243.778,243.778,0,0,0,19.253,95.366a245.02,245.02,0,0,0,22.589,41.617,246.75,246.75,0,0,0,29.917,36.259,246.752,246.752,0,0,0,36.259,29.917,245.022,245.022,0,0,0,41.617,22.589,243.759,243.759,0,0,0,45.989,14.276A246.81,246.81,0,0,0,245,245a246.811,246.811,0,0,0,49.376-4.977,243.776,243.776,0,0,0,45.989-14.276,245.025,245.025,0,0,0,41.617-22.589,246.749,246.749,0,0,0,36.259-29.917,246.764,246.764,0,0,0,29.917-36.259,245.025,245.025,0,0,0,22.589-41.617,243.768,243.768,0,0,0,14.276-45.989A246.813,246.813,0,0,0,490,0Z" transform="translate(715 1694)" fill="#e8e8e8"/>
    <g id="前面オブジェクトで型抜き_2" data-name="前面オブジェクトで型抜き 2" transform="translate(769 1694)" fill="none">
      <path d="M382,0H0A192.417,192.417,0,0,0,3.88,38.494,190.048,190.048,0,0,0,15.01,74.347a191.016,191.016,0,0,0,17.61,32.444,192.365,192.365,0,0,0,23.323,28.268A192.366,192.366,0,0,0,84.21,158.382a191.016,191.016,0,0,0,32.444,17.61,190.031,190.031,0,0,0,35.853,11.129A192.411,192.411,0,0,0,191,191a192.411,192.411,0,0,0,38.493-3.88,190.045,190.045,0,0,0,35.853-11.129,191.019,191.019,0,0,0,32.444-17.61,192.364,192.364,0,0,0,28.267-23.323,192.376,192.376,0,0,0,23.323-28.268,191.019,191.019,0,0,0,17.61-32.444,190.039,190.039,0,0,0,11.129-35.853A192.413,192.413,0,0,0,382,0Z" stroke="none"/>
      <path d="M 5.06646728515625 5.000778198242188 C 5.357421875 15.94921875 6.60260009765625 26.85624694824219 8.778839111328125 37.49177551269531 C 11.22222900390625 49.43193054199219 14.86788940429688 61.17646789550781 19.6146240234375 72.39925384521484 C 24.27578735351562 83.41956329345703 30.04525756835938 94.04898834228516 36.76278686523438 103.9922485351562 C 43.41720581054688 113.8422546386719 51.0596923828125 123.1050415039062 59.47796630859375 131.5233001708984 C 67.89599609375 139.9415130615234 77.15875244140625 147.583984375 87.0087890625 154.2385101318359 C 96.95220947265625 160.9561920166016 107.58154296875 166.7256774902344 118.6015319824219 171.3867797851562 C 129.8240051269531 176.1335601806641 141.5684814453125 179.7792510986328 153.5086822509766 182.2225646972656 C 165.7626953125 184.7300415039062 178.3763732910156 186.00146484375 190.9994201660156 186.00146484375 C 203.6224212646484 186.00146484375 216.2360534667969 184.7300415039062 228.4900512695312 182.2225646972656 C 240.4300079345703 179.7792510986328 252.1745300292969 176.1335601806641 263.3973083496094 171.3867797851562 C 274.4173583984375 166.7256774902344 285.0466918945312 160.9561462402344 294.9902038574219 154.2384643554688 C 304.84033203125 147.5839385986328 314.1031188964844 139.9414672851562 322.5211486816406 131.5233001708984 C 330.939208984375 123.1052017211914 338.581787109375 113.8424072265625 345.2364196777344 103.9922485351562 C 351.9542541503906 94.04840850830078 357.7237548828125 83.41899108886719 362.3846435546875 72.39925384521484 C 367.131591796875 61.17608642578125 370.7773132324219 49.43156433105469 373.2205200195312 37.49183654785156 C 375.3968505859375 26.85601806640625 376.6420593261719 15.94905090332031 376.9330139160156 5.000778198242188 L 5.06646728515625 5.000778198242188 M 381.9994812011719 -1.52587890625e-05 L 381.9994812011719 0.0007781982421875 C 381.9994812011719 12.95982360839844 380.69384765625 25.91093444824219 378.1190185546875 38.49420166015625 C 375.6096496582031 50.75730895996094 371.8651733398438 62.81993103027344 366.9896240234375 74.34698486328125 C 362.2028503417969 85.66445922851562 356.2778930664062 96.58025360107422 349.3795776367188 106.7912521362305 C 342.5467529296875 116.905143737793 334.6997985839844 126.4157257080078 326.0567016601562 135.058837890625 C 317.4136352539062 143.7019958496094 307.9030456542969 151.5489349365234 297.7892150878906 158.3816223144531 C 287.5784301757812 165.2798767089844 276.6626892089844 171.204833984375 265.3450927734375 175.9917755126953 C 253.8183135986328 180.8671417236328 241.7557373046875 184.611572265625 229.492431640625 187.1210479736328 C 216.9093780517578 189.6958770751953 203.9584197998047 191.00146484375 190.9994201660156 191.00146484375 C 178.0403137207031 191.00146484375 165.0893707275391 189.6958770751953 152.5063171386719 187.1210479736328 C 140.2427368164062 184.611572265625 128.1802215576172 180.8671417236328 116.6537475585938 175.9917755126953 C 105.3362731933594 171.2048797607422 94.4205322265625 165.2799377441406 84.20974731445312 158.3816223144531 C 74.095947265625 151.5489349365234 64.58541870117188 143.7019958496094 55.9423828125 135.058837890625 C 47.29910278320312 126.4155120849609 39.45220947265625 116.9049377441406 32.61962890625 106.7912521362305 C 25.721435546875 96.58051300048828 19.79653930664062 85.6646728515625 15.00958251953125 74.34698486328125 C 10.13430786132812 62.82029724121094 6.389892578125 50.75767517089844 3.88037109375 38.49420166015625 C 1.3057861328125 25.91213989257812 0 12.96134948730469 0 0.0007781982421875 L 381.9994201660156 0.0007781982421875 L 381.9994812011719 -1.52587890625e-05 Z" stroke="none" fill="#8cbcbf"/>
    </g>
    <text id="Project_s_new_report" data-name="Project’s 
new report" transform="translate(960 1763)" fill="#414141" font-size="60" font-family="Helvetica-Bold, Helvetica" font-weight="700"><tspan x="-133.96" y="0">Project’s </tspan><tspan x="-153.354" y="70">new report</tspan></text>
  </g>
</svg>
