<svg xmlns="http://www.w3.org/2000/svg" width="42" height="66.103" viewBox="0 0 42 66.103">
  <g id="グループ_233" data-name="グループ 233" transform="translate(-999 -8627.897)">
    <path id="twitter-brands" d="M27.814,54.357c.02.275.02.551.02.826,0,8.4-6.393,18.077-18.077,18.077A17.954,17.954,0,0,1,0,70.408a13.143,13.143,0,0,0,1.534.079,12.724,12.724,0,0,0,7.888-2.714,6.365,6.365,0,0,1-5.94-4.406,8.012,8.012,0,0,0,1.2.1,6.72,6.72,0,0,0,1.672-.216,6.354,6.354,0,0,1-5.095-6.235v-.079a6.4,6.4,0,0,0,2.872.806,6.363,6.363,0,0,1-1.967-8.5,18.059,18.059,0,0,0,13.1,6.648,7.172,7.172,0,0,1-.157-1.456,6.36,6.36,0,0,1,11-4.347,12.509,12.509,0,0,0,4.032-1.534,6.336,6.336,0,0,1-2.793,3.5A12.737,12.737,0,0,0,31,51.072a13.657,13.657,0,0,1-3.186,3.285Z" transform="translate(1004 8579.815)" fill="#fcf8f3"/>
    <text id="Twitter" transform="translate(1020 8691)" fill="#fcf8f3" font-size="14" font-family="Helvetica"><tspan x="-20.617" y="0">Twitter</tspan></text>
  </g>
</svg>
